<?xml version="1.0" encoding="UTF-8" standalone="no"?>
<svg
   width="1200"
   height="1000"
   viewBox="0 0 1200 1000"
   version="1.1"
   xml:space="preserve"
   style="clip-rule:evenodd;fill-rule:evenodd;stroke-linejoin:round;stroke-miterlimit:1.41421"
   id="svg51"
   sodipodi:docname="rustacean-flat-noshadow.svg"
   inkscape:version="1.1.2 (0a00cf5339, 2022-02-04)"
   xmlns:inkscape="http://www.inkscape.org/namespaces/inkscape"
   xmlns:sodipodi="http://sodipodi.sourceforge.net/DTD/sodipodi-0.dtd"
   xmlns="http://www.w3.org/2000/svg"
   xmlns:svg="http://www.w3.org/2000/svg"
   xmlns:serif="http://www.serif.com/"><defs
   id="defs55">
        
        
        
        
        
        
        
        
        
        
        
        
    
            
        
            
        
            
        
            
        </defs><sodipodi:namedview
   id="namedview53"
   pagecolor="#ffffff"
   bordercolor="#666666"
   borderopacity="1.0"
   inkscape:pageshadow="2"
   inkscape:pageopacity="0.0"
   inkscape:pagecheckerboard="0"
   showgrid="false"
   inkscape:zoom="0.50466539"
   inkscape:cx="726.22377"
   inkscape:cy="526.09116"
   inkscape:window-width="1440"
   inkscape:window-height="832"
   inkscape:window-x="0"
   inkscape:window-y="0"
   inkscape:window-maximized="1"
   inkscape:current-layer="svg51" />
    <g
   id="Layer-1"
   serif:id="Layer 1"
   transform="translate(0.49890316,49.244)">
        <g
   transform="translate(597.344,637.02)"
   id="g4">
            <path
   d="m 0,-279.559 c -121.238,0 -231.39,14.576 -312.939,38.329 V -38.329 C -231.39,-14.575 -121.238,0 0,0 138.76,0 262.987,-19.092 346.431,-49.186 V -230.37 C 262.987,-260.465 138.76,-279.559 0,-279.559"
   style="fill:#a52b00;fill-rule:nonzero"
   id="path2" />
        </g>
        <g
   transform="translate(1068.75,575.642)"
   id="g8">
            <path
   d="m 0,-53.32 -14.211,-29.441 c 0.073,-1.118 0.131,-2.237 0.131,-3.36 0,-33.375 -34.706,-64.135 -93.097,-88.762 V 2.643 c 27.245,-11.492 49.348,-24.317 65.156,-38.125 -4.652,18.707 -20.564,56.553 -33.25,83.168 -20.85,38.066 -28.4,71.203 -27.432,72.844 0.617,1.033 7.73,-9.94 18.219,-27.721 C -60.074,58.028 -13.82,-8.373 -4.575,-25.287 5.897,-44.461 0,-53.32 0,-53.32"
   style="fill:#a52b00;fill-rule:nonzero"
   id="path6" />
        </g>
        <g
   transform="translate(149.064,591.421)"
   id="g12">
            <path
   d="m 0,-99.954 c 0,6.428 1.293,12.76 3.788,18.969 l -8.511,15.15 c 0,0 -6.818,8.846 5.188,27.508 10.59,16.455 63.635,80.867 91.632,114.598 12.026,17.293 20.179,27.945 20.893,26.916 1.124,-1.633 -7.476,-34.1 -31.359,-71.141 -11.144,-19.895 -24.454,-46.252 -32.442,-65.721 22.303,14.116 51.483,26.92 86.152,37.94 V -204.17 C 51.797,-177.622 0,-140.737 0,-99.954"
   style="fill:#a52b00;fill-rule:nonzero"
   id="path10" />
        </g>
        <g
   transform="translate(1151.27,281.813)"
   id="g16">
            <path
   d="m 0,240.343 -93.415,-68.811 c -0.88,-3.064 -1.756,-6.127 -2.662,-9.162 l 30.683,-44.451 c 3.13,-4.522 3.765,-10.398 1.731,-15.555 -2.037,-5.13 -6.491,-8.81 -11.763,-9.71 l -51.884,-8.805 c -2.008,-4.102 -4.116,-8.142 -6.23,-12.15 l 21.797,-49.903 c 2.243,-5.087 1.769,-10.995 -1.203,-15.608 -2.961,-4.636 -7.99,-7.344 -13.349,-7.133 l -52.656,1.913 c -2.727,-3.55 -5.496,-7.068 -8.321,-10.521 l 12.1,-53.49 c 1.225,-5.433 -0.322,-11.118 -4.103,-15.064 -3.762,-3.932 -9.229,-5.559 -14.426,-4.283 l -51.289,12.608 c -3.321,-2.935 -6.698,-5.833 -10.114,-8.673 l 1.848,-54.914 c 0.198,-5.559 -2.393,-10.842 -6.844,-13.925 -4.446,-3.104 -10.093,-3.573 -14.956,-1.266 l -47.847,22.747 c -3.854,-2.21 -7.728,-4.4 -11.644,-6.517 l -8.455,-54.115 c -0.857,-5.483 -4.385,-10.139 -9.326,-12.266 -4.923,-2.137 -10.568,-1.447 -14.891,1.808 l -42.659,32.007 c -4.2,-1.395 -8.419,-2.732 -12.692,-4.011 l -18.386,-51.316 c -1.87,-5.229 -6.181,-9.071 -11.438,-10.151 -5.239,-1.072 -10.63,0.742 -14.263,4.802 l -35.906,40.171 c -4.343,-0.5 -8.686,-0.956 -13.043,-1.331 l -27.724,-46.713 c -2.81,-4.732 -7.77,-7.612 -13.116,-7.612 -5.334,0 -10.304,2.88 -13.09,7.612 l -27.733,46.713 c -4.358,0.375 -8.722,0.831 -13.056,1.331 l -35.91,-40.171 c -3.636,-4.06 -9.047,-5.874 -14.268,-4.802 -5.255,1.092 -9.573,4.922 -11.433,10.151 l -18.402,51.316 c -4.26,1.279 -8.481,2.627 -12.691,4.011 l -42.644,-32.007 c -4.336,-3.266 -9.98,-3.955 -14.916,-1.808 -4.919,2.127 -8.461,6.783 -9.313,12.266 l -8.461,54.115 c -3.914,2.117 -7.789,4.294 -11.653,6.517 l -47.842,-22.747 c -4.858,-2.316 -10.529,-1.838 -14.954,1.266 -4.445,3.083 -7.042,8.366 -6.84,13.925 l 1.835,54.914 c -3.405,2.84 -6.774,5.738 -10.112,8.673 l -51.279,-12.608 c -5.21,-1.265 -10.67,0.351 -14.441,4.283 -3.795,3.946 -5.331,9.631 -4.113,15.064 l 12.079,53.49 c -2.802,3.467 -5.575,6.971 -8.293,10.521 l -52.655,-1.913 c -5.314,-0.157 -10.386,2.497 -13.356,7.133 -2.973,4.613 -3.423,10.521 -1.213,15.608 l 21.816,49.903 c -2.119,4.008 -4.224,8.048 -6.249,12.15 l -51.887,8.805 c -5.27,0.888 -9.71,4.566 -11.76,9.71 -2.04,5.157 -1.37,11.033 1.73,15.555 l 30.7,44.451 c -0.24,0.784 -0.46,1.577 -0.7,2.364 l -86.77,92.17 c 0,0 -13.29,10.423 6.07,34.916 17.07,21.605 104.724,107.252 151.018,152.123 19.554,22.779 32.948,36.886 34.349,35.666 2.208,-1.94 -9.387,-43.385 -47.902,-92.012 -29.685,-43.629 -68.215,-110.733 -59.175,-118.467 0,0 10.27,-13.045 30.893,-22.435 0.753,0.603 -0.781,-0.598 0,0 0,0 435.152,200.732 838.797,3.396 46.108,-8.273 74.023,16.43 74.023,16.43 9.628,5.58 -15.301,74.578 -35.798,120.254 -27.881,51.863 -31.97,92.332 -29.604,93.736 1.491,0.889 11.634,-14.545 26.104,-39.109 C -79.843,391.654 -12.354,296.816 0,273.782 14.006,247.663 0,240.343 0,240.343"
   style="fill:#f74c00;fill-rule:nonzero"
   id="path14" />
        </g>
        <g
   transform="translate(450.328,483.629)"
   id="g20">
            <path
   d="m 0,167.33 c -1.664,-1.42 -2.536,-2.262 -2.536,-2.262 L 140.006,153.391 C 23.733,0 -69.418,122.193 -79.333,135.855 v 31.475 z"
   style="fill-rule:nonzero"
   id="path18" />
        </g>
        <g
   transform="translate(747.12,477.333)"
   id="g24">
            <path
   d="m 0,171.974 c 1.663,-1.42 2.536,-2.264 2.536,-2.264 L -134.448,159.687 C -18.12,0 69.421,126.835 79.335,140.497 v 31.477 z"
   style="fill-rule:nonzero"
   id="path22" />
        </g>
        <g
   transform="translate(966.094,811.034)"
   id="g28">
            <path
   d="m 0,-314.014 c 0,0 -15.576,62.041 -112.453,127.238 l -27.166,6.367 c 0,0 -87.881,-160.259 -212.383,20.334 0,0 38.802,-22.591 142.822,4.92 0,0 -47.85,73.239 -144.242,70.989 0,0 92.373,110.82 232.94,-49.252 0,0 148.595,-57.463 160.646,-180.596 z"
   style="fill:#f74c00;fill-rule:nonzero"
   id="path26" />
        </g>
        <g
   transform="translate(677.392,509.61)"
   id="g32">
            <path
   d="m 0,-92.063 c 0,0 43.486,-47.615 86.974,0 0,0 34.17,63.492 0,95.234 0,0 -55.912,44.444 -86.974,0 0,0 -37.275,-34.921 0,-95.234"
   style="fill-rule:nonzero"
   id="path30" />
        </g>
        <g
   transform="translate(727.738,435.209)"
   id="g36">
            <path
   d="m 0,0.002 c 0,18.541 -10.93,33.572 -24.408,33.572 -13.477,0 -24.406,-15.031 -24.406,-33.572 0,-18.541 10.929,-33.574 24.406,-33.574 C -10.93,-33.572 0,-18.539 0,0.002"
   style="fill:#ffffff;fill-rule:nonzero"
   id="path34" />
        </g>
        <g
   transform="translate(483.3,502.984)"
   id="g40">
            <path
   d="m 0,-98.439 c 0,0 74.596,-33.028 94.956,40.691 0,0 21.327,85.926 -61.259,90.776 0,0 -105.31,-20.283 -33.697,-131.467"
   style="fill-rule:nonzero"
   id="path38" />
        </g>
        <g
   transform="translate(520.766,436.428)"
   id="g44">
            <path
   d="m 0,0 c 0,19.119 -11.27,34.627 -25.173,34.627 -13.898,0 -25.171,-15.508 -25.171,-34.627 0,-19.124 11.273,-34.627 25.171,-34.627 C -11.27,-34.627 0,-19.124 0,0"
   style="fill:#ffffff;fill-rule:nonzero"
   id="path42" />
        </g>
        <g
   transform="translate(441.397,687.635)"
   id="g48">
            <path
   d="M 0,-25.102 C 91.833,-36.676 144.904,-37.754 144.904,-37.754 22.037,-199.838 -77.661,-53.098 -77.661,-53.098 c -24.982,-8.932 -50.453,-43.613 -69.477,-75.59 l -76.237,-22.58 C -135.502,-2.127 -70.08,0.146 -70.08,0.146 66.134,174.736 130.663,34.441 130.663,34.441 54.195,25.759 0,-25.102 0,-25.102"
   style="fill:#f74c00;fill-rule:nonzero"
   id="path46" />
        </g>
    </g>
<path
   style="fill:#999999;stroke:#000000;stroke-width:1px;stroke-linecap:butt;stroke-linejoin:miter;stroke-opacity:1"
   d="m 458.10579,639.38443 29.93992,-27.95338 50.82472,-12.38761 77.43835,-5.91815 63.12198,10.90271 45.52256,17.15095 19.20724,18.20044 -0.96406,18.53737 0.17064,213.60122 -17.41418,14.8522 -85.94242,25.6498 -97.46752,-2.8388 -67.06277,-19.5206 -19.93274,-23.7008 z"
   id="path3749" /><g
   style="overflow:hidden;fill:currentColor"
   id="g850"
   transform="matrix(0.33573079,0,0,0.3937617,428.69979,551.80506)"><path
     d="M 914.342,163.64815 C 890.99936,148.32209 858.24128,134.72338 817.02558,123.28179 735.05159,100.51425 626.47675,87.993077 511.28727,87.993077 c -115.19256,0 -223.76842,12.569273 -305.74138,35.288713 -41.26073,11.44261 -73.9963,25.0403 -97.33791,40.36636 -29.132504,19.15936 -43.904952,41.12258 -43.904952,65.44862 v 564.61124 c 0,24.35366 14.772448,46.31586 43.904952,65.42815 23.38562,15.34755 56.12527,28.94626 97.33791,40.38785 81.97296,22.74503 190.5478,35.28872 305.74138,35.28872 115.18948,0 223.76432,-12.54472 305.73831,-35.33272 41.25663,-11.44159 73.97378,-25.04337 97.31642,-40.34385 29.1325,-19.11331 43.92746,-41.16965 43.92746,-65.4742 V 229.05277 c 0,-24.33115 -14.79496,-46.33838 -43.92746,-65.45271 z m -696.18489,4.93848 c 78.02301,-21.64293 182.09427,-33.59003 293.12913,-33.59003 111.00928,0 215.17162,11.9471 293.1496,33.59003 84.4463,23.47976 106.77893,49.82989 106.77893,60.51014 0,10.68536 -22.33161,37.03447 -106.77893,60.51423 -78.02096,21.64293 -182.13929,33.58798 -293.1496,33.58798 -111.03486,0 -215.17468,-11.94403 -293.12913,-33.58798 -84.44834,-23.47976 -106.80451,-49.82887 -106.80451,-60.51423 0.001,-10.68025 22.31012,-37.02936 106.80451,-60.51014 z M 804.43584,854.2202 c -78.02096,21.64292 -182.13929,33.59002 -293.1496,33.59002 -111.03486,0 -215.17468,-11.9471 -293.12913,-33.59002 C 133.70877,830.74351 111.3526,804.36984 111.3526,793.70903 V 672.95686 c 23.16049,14.56574 54.77144,27.47679 94.19227,38.41286 81.97296,22.78903 190.5478,35.28769 305.74137,35.28769 115.18949,0 223.76432,-12.58973 305.73831,-35.33578 39.41776,-10.97905 71.0809,-23.84611 94.1892,-38.36477 v 120.70612 c 0,10.70686 -22.33161,37.03243 -106.77893,60.51322 v 0.044 z m 0,-188.20238 c -78.02096,21.64292 -182.13929,33.59002 -293.1496,33.59002 -111.03486,0 -215.17468,-11.9471 -293.12913,-33.59002 C 133.70877,642.53805 111.3526,616.16643 111.3526,605.50665 V 484.77596 c 23.16049,14.54425 54.77144,27.43279 94.19227,38.39036 81.97296,22.79005 190.5478,35.28973 305.74137,35.28973 115.18949,0 223.76432,-12.59075 305.73831,-35.28973 39.41776,-10.95757 71.0809,-23.84611 94.1892,-38.39036 v 120.73069 c 10e-4,10.65978 -22.33059,37.0314 -106.77791,60.51117 z m 0,-188.20239 c -78.02096,21.64191 -182.13929,33.59003 -293.1496,33.59003 -111.03486,0 -215.17468,-11.9471 -293.12913,-33.59003 C 133.70877,454.33465 111.3526,427.98554 111.3526,417.30324 V 296.57358 c 23.16049,14.54425 54.77144,27.43279 94.19226,38.39138 81.97297,22.76754 190.54781,35.28974 305.74138,35.28974 115.18949,0 223.76432,-12.56927 305.73831,-35.28974 39.41776,-10.95756 71.0809,-23.84611 94.1892,-38.39138 v 120.72966 c 10e-4,10.6823 -22.33059,37.03141 -106.77791,60.51219 z"
     id="path841" /></g><g
   transform="translate(1141.9311,564.65937)"
   id="g79"
   style="clip-rule:evenodd;fill-rule:evenodd;stroke-linejoin:round;stroke-miterlimit:1.41421">
            
        </g><path
   id="path5541"
   style="clip-rule:evenodd;fill:#f74c00;fill-rule:nonzero;stroke-linejoin:round;stroke-miterlimit:1.41421"
   d="m 967.409,546.46871 c 0,0 -15.5761,62.04128 -112.4531,127.23828 l -27.166,6.36719 c 0,0 -3.1646,-5.7091 -9.0489,-13.71875 L 757.4129,705.123 c 0.2779,0.0729 0.5374,0.13128 0.8164,0.20508 0,0 -47.8502,73.24024 -144.24221,70.99024 0,0 92.37441,110.82004 232.94141,-49.25196 0,0 148.5936,-57.46465 160.6446,-180.59765 z" /><path
   id="path5831"
   style="clip-rule:evenodd;fill:#f74c00;fill-rule:nonzero;stroke-linejoin:round;stroke-miterlimit:1.41421"
   d="m 218.52098,585.61094 c 87.873,149.141 153.29492,151.41406 153.29492,151.41406 136.214,174.59 200.74414,34.29492 200.74414,34.29492 -76.468,-8.682 -130.66406,-59.54297 -130.66406,-59.54297 2.73939,-0.34525 5.32997,-0.65169 8,-0.97851 l -67.69531,-47.86133 c -11.54722,11.42439 -17.96485,20.84375 -17.96485,20.84375 -24.982,-8.932 -50.45256,-43.61284 -69.47656,-75.58984 z" /></svg>
